<mxfile host="app.diagrams.net" modified="2023-12-02T10:53:26.109Z" agent="Mozilla/5.0 (Windows NT 10.0; Win64; x64) AppleWebKit/537.36 (KHTML, like Gecko) Chrome/119.0.0.0 Safari/537.36" version="22.1.5" etag="eOGbIgx-Vm07zRoBJjrL" type="github">
  <diagram name="Pagina-1" id="29mhqxpJTK-J5CjTTpTs">
    <mxGraphModel>
      <root>
        <mxCell id="0" />
        <mxCell id="1" parent="0" />
      </root>
    </mxGraphModel>
  </diagram>
</mxfile>
